<svg width="16" height="16" viewBox="0 0 16 16" fill="none" xmlns="http://www.w3.org/2000/svg">
<path d="M6.5089 2.39953C7.43159 1.86682 8.56838 1.86682 9.49106 2.39953L12.1046 3.90845C13.0273 4.44117 13.5957 5.42566 13.5957 6.49108V9.50892C13.5957 10.5743 13.0273 11.5588 12.1046 12.0915L9.49106 13.6005C8.56838 14.1332 7.43159 14.1332 6.5089 13.6005L3.89538 12.0915C2.97269 11.5588 2.4043 10.5743 2.4043 9.50892V6.49108C2.4043 5.42566 2.97269 4.44117 3.89538 3.90845L6.5089 2.39953Z" fill="#E93A7D"/>
<path d="M7.40387 9.49126L7.25476 4.521H8.84525L8.70608 9.49126H7.40387ZM8.79554 10.8332C8.79554 11.032 8.72596 11.2077 8.58679 11.3601C8.45425 11.5059 8.27532 11.5788 8.05 11.5788C7.82468 11.5788 7.64244 11.5059 7.50327 11.3601C7.37073 11.2077 7.30446 11.032 7.30446 10.8332C7.30446 10.6344 7.37073 10.4621 7.50327 10.3163C7.64244 10.1639 7.82468 10.0877 8.05 10.0877C8.26869 10.0877 8.44762 10.1639 8.58679 10.3163C8.72596 10.4621 8.79554 10.6344 8.79554 10.8332Z" fill="white"/>
</svg>
