<svg width="55" height="58" viewBox="0 0 55 58" fill="none" xmlns="http://www.w3.org/2000/svg">
<path d="M19.8389 1.93108C24.2986 -0.643692 29.7931 -0.643693 34.2527 1.93108L46.8848 9.2242C51.3444 11.799 54.0916 16.5573 54.0916 21.7069V36.2931C54.0916 41.4427 51.3444 46.201 46.8848 48.7758L34.2527 56.0689C29.7931 58.6437 24.2986 58.6437 19.8389 56.0689L7.20688 48.7758C2.74725 46.201 0 41.4427 0 36.2931V21.7069C0 16.5573 2.74725 11.799 7.20688 9.2242L19.8389 1.93108Z" fill="#E93A7D"/>
<path fill-rule="evenodd" clip-rule="evenodd" d="M40.6667 23.2717L24.1641 39L14 29.3128L18.482 25.0411L24.1641 30.4566L36.1847 19L40.6667 23.2717Z" fill="white"/>
</svg>
